<?xml version="1.0" encoding="UTF-8"?><svg id="edited" xmlns="http://www.w3.org/2000/svg" viewBox="0 0 1624.28 1617.12"><defs><style>.cls-1{fill:#010101;}</style></defs><g id="logo"><path id="hand" class="cls-1" d="M1337.18,1211.18c-9.38-17.79-46.57.21-62.97,5.79-7.54-49.87-127.41,32.51-152.02,42.05-58.46,29.22-143.6,61.01-203.82,79.65,3.24-34.14,41.54-46.31,65.41-59.36,55.38-27.46,33.67-58.88-21.84-40.22-35.68,13.07-53.84,24.9-80.23,41.79-41.79,27.73-81.94,57.66-123.87,85.19-113.09,77.45-342.81-3.3-433.31-64.58,87.39,147.06,246.4,229.59,405.47,228.19,152.05-1.34,211.71-19.88,402.29-138.51,88.87-55.32,210.26-166.58,204.89-180Z"/><g id="right_flower"><path class="cls-1" d="M1457.49,713.79s-27.41-94.44-117.96-60.61c0,0,9.89,75.08,117.96,60.61Z"/><path class="cls-1" d="M1576.41,648.82s-61.12.21-73.1,64.31c0,0,63.92,23.65,73.1-64.31Z"/><path class="cls-1" d="M1500.12,544.89c-94.97,54.25-32.89,135.83-32.89,135.83,108.84-54.99,32.89-135.83,32.89-135.83Z"/><path class="cls-1" d="M1418,837.15c-29.04-68.79-79.49-69.32-67.26,0,12.23,69.32,87.13,100.96,68.79,165.62,0,0,27.51-96.83-1.53-165.62Z"/><path class="cls-1" d="M1415.19,742.99s-23.1,39.79,19.64,73.09c0,0,19.64-40.16-19.64-73.09Z"/><path class="cls-1" d="M1470.63,691.95c-.82,16.92-.39,33.75-.87,50.63-.31,24.55-1.18,49.14-2.83,73.63-5.15,90.33-23.96,178.96-49.02,266.57,15.25-16.45,27.14-35.2,37.88-54.24,23.22-42.36,38.19-88.04,45.55-134.91,8.57-55.34,5.5-112.76-14.03-166.04-4.63-12.18-10-24.26-16.66-35.66Z"/><path class="cls-1" d="M1564.24,718.45c-43.82,56.86-49.93,137.58-49.93,137.58,14.27-44.02,60.13-42.19,95.79-114.65,35.67-72.46-2.04-79.79-45.86-22.93Z"/></g><g id="left_flower"><path class="cls-1" d="M124.36,691.64c-.08,0-.15,0-.23,0-4.13.17-7.28,3.77-6.9,7.89,4.17,45.11,10.8,89.83,25.67,132.78,17.55,44.05,22.22,42,7.16-2.38-12.24-42.39-16.49-87.33-18.2-131.37-.15-3.99-3.52-7.09-7.51-6.92Z"/><path class="cls-1" d="M126.21,671.83s65.5-62.15-.44-126.94c0,0-76.5,59.1.44,126.94Z"/><path class="cls-1" d="M231.66,631.3c-77.04-23.61-91.19,64.39-91.19,64.39,89.68,4.64,91.19-64.39,91.19-64.39Z"/><path class="cls-1" d="M110.24,685.82c-40.7-43.2-82.57-15.46-82.57-15.46,50.89,62.6,82.57,15.46,82.57,15.46Z"/><path class="cls-1" d="M119.21,787.16C69.53,695.21,0,735.5,0,735.5c23.17,90.87,119.21,51.66,119.21,51.66Z"/><path class="cls-1" d="M234.12,979.77c-3.52-6.34-6.98-12.75-10.84-18.93,25.27-38.99,27.58-92.46,24.83-117.27-3.37-30.38,12.65-71.68,12.65-71.68-36.27,28.68-39.9,53.21-42.18,71.68-3.64,29.54-2.02,50.4-3.64,70.99-.31,3.94-.96,8.93-1.8,14.42-3.05-19.25-5.41-38.72-6.82-57.99-4.64-59.27,1.22-120.68,2.37-180.21-9.16,10.21-15.85,22.33-21.72,34.62-20.06,43.25-24.48,92.02-20.94,139.12,1.31,16.2,3.78,32.42,7.42,48.37-28.16-29.74-73.23-54.6-105.01-63.4-37.15-10.28-53.48-47.85-53.48-47.85,9.01,91.05,69,169.56,139.22,183.07,17.33,3.33,31,6.39,41.78,9.1,2.61,2.51,5.21,5.12,7.78,7.77,24.81,26.23,48.13,55.27,64.45,87.79,3.2,6.62,6.02,13.46,7.98,20.69.1-7.49-.74-15.09-2.04-22.59-7.2-37.87-22.27-73.49-40-107.7Z"/></g><path class="cls-1" d="M332.69,543.35c7.76,7.35,9.1,17.95,10.65,28.16.95,5.84,3.09,11.63,3.37,17.52-.12,9.47-2.93,18.09,1.71,26.97,1.98,4.13,4.61,8.39,6.89,12.49,5.93,11.02,8.26,25.1,17.96,33.19,9.59,7.4,18.74,14.06,26.84,23.7,13.04,12.37,28.37,17.61,44.04,24.25,6.22,4,13.41,7.03,20.09,10.36,6.16,3.44,11.55,8.54,18.44,10.69,14.68,7.06,30.9,0,46.34,1.71,22.84,2.84,31.25,10.09,54.58-.1,16.75-8.94,35.87-15.3,54.41-20.13,15.47-4.15,22.09-2.73,35.98,2.67,12.73.74,23.88.26,28.7,14.94,9.29,32.75,14.9,72.89,21.34,103.92,5.16,27.48,9.35,55.52,10.38,83.33,4.58,73.74-18.79,175.52-51.36,230.66-.41.81-.9,1.58-.84,2.34,1.07,1.76,2.97,1.28,6.04,1.9,23.77,2.17,20.98,4.15,55.37,4.09,21.18-.04,66.06-11.94,157.17-73.44,26.36-17.79,52.41-40.01,79.82-56.44,5.49-3.68,16.69-9.1,18.83-12.22,2-3.23-1.07-5.85-6.49-10.33-91.18-56.89-83.17-176.25-49.29-249.72,6.63-9.18,18.8-6.06,28.62-5.76,6.48.52,12.84-.75,19.17-1.64,15.41-.96,29.19-6.32,42.8-13.51,10.87-4.81,21.71-6.74,33.22-8.89,7.22-1.94,15.4-2.38,23-3.24,11.66-.94,24.79,3.08,35.92-2.3,6.13-3,12.14-7.31,19.12-7.81,8.53-.87,17.76-1.72,25.53-6.07,7.68-4.38,15.65-11.72,23.56-16.26,16.71-7.64,36.05-14.79,42.8-33.35,3.3-6.15,4.44-12.54,7.3-19.33,3.86-9.05,8.28-18.04,10.24-27.73,1.98-7.75,3.42-15.09,6.94-22.13,6.16-9.39,14.06-19.25,22.26-26.42,9.26-4.9,22.54-4.52,32.09-9.72,14.32-10.09,19.42-27.88,23.69-44.12,1.53-8.56,2.1-16.64,5.74-24.41,8.79-25.92,2.64-39.95-14.05-60.54-11-18.28-30.11-29.14-42.91-45.83-14.51-16.17-7.14-37.27-8.89-56.69-.13-18.42-13.57-32.57-24.6-45.63-10.46-11.57-18.43-25.3-30.07-35.81-13.37-10.35-29.39-16.26-45.27-20.05-7.81-1.91-16.19-5.95-21.58-12.36-5.8-7.19-12.01-14.33-19.39-19.93-10.42-7.22-24.14-3.41-35.66-7.73-6.26-1.51-11.13-5.24-16.49-8.43-5.36-2.9-11.2-4.4-16.26-8.69-3.97-3.32-7.65-7.28-12.4-9.36-8.96-4.56-18.35.23-28.01-.12-17.08-2.32-35.01-3.64-51.71.59-9.19.89-13.1.55-21.28,5.01-3.87,1.04-7.51,2.42-11.44,3.91-9.63,3.45-22.08-.62-28.74-8.43-4.89-5.47-7.42-12.83-9.98-19.62-6.55-16.95-24.56-22.67-40.66-26.8-12.18-1.81-23.9-6.19-35.7-9.45-10.58-3.53-17.2-9.54-28.69-7.31-8.05.58-16.65,1.56-24.55,3.55-9.23,2.2-16.43,8.34-26,8.97-14.4.77-29.15,2.46-42.19,8.05-6.65,3.67-10.46,9.67-15.47,15.23-7,10.31-21.7,9.48-31.07,15.46-4.86,4.54-4.64,11.9-6.54,18.58-2.37,14.36-11.98,15.43-23.67,11.92-12.79-2.74-25.89-8.97-38.31-13.3-7.19-1.76-14.25.71-21.21,2.99-11.79,4.51-24.82,6.12-36.71,10.56-6.1,2.21-12.67,3.66-17.95,6.55-3.96,1.64-8.49,6.59-12.61,5.83-4.45.12-6.5-1.57-12.1-.43-9.04,3.28-18.55,9.06-27.61,12.85-21.21,9.56-37.36,26.08-52.49,43.62-8.29,9.42-19.81,15.44-21.28,28.63-.76,14.33.92,30.01-7.23,42.71-8.15,12.05-22.62,17.92-31.96,29.03-11.62,11.97-19.12,28.72-33.35,37.96-6.75,5.2-14.37,9.01-19.28,15.89-12.71,21.08-.65,47.09,4.42,68.99,3.52,11.71-.19,23.14.59,34.11-.09,6.23,4.84,10.53,5.87,16.62,2.63,12.53,12.84,22.08,21.41,30.98l.11.11Z"/></g></svg>