<?xml version="1.0" encoding="UTF-8"?><svg id="edited-complex_copy" xmlns="http://www.w3.org/2000/svg" viewBox="0 0 1812.39 1624.28"><defs><style>.cls-1{fill:#010101;}</style></defs><g id="logo"><path id="hand" class="cls-1" d="M1489.07,1265.56c-10.56-20.03-52.45.24-70.91,6.52-8.49-56.17-143.49,36.61-171.2,47.35-65.84,32.9-161.72,68.71-229.54,89.7,3.65-38.44,46.78-52.16,73.66-66.84,62.36-30.93,37.92-66.31-24.6-45.29-40.18,14.72-60.64,28.04-90.35,47.07-47.06,31.23-92.28,64.93-139.5,95.94-127.36,87.23-386.06-3.71-487.98-72.73,98.42,165.61,277.5,258.57,456.63,256.99,171.24-1.51,238.42-22.39,453.05-155.99,100.09-62.3,236.79-187.6,230.74-202.71Z"/><path class="cls-1" d="M357.82,513.46c8.74,8.28,10.25,20.21,11.99,31.71,1.07,6.58,3.48,13.1,3.8,19.73-.14,10.67-3.3,20.37,1.92,30.37,2.23,4.66,5.19,9.44,7.76,14.06,6.67,12.41,9.31,28.27,20.23,37.38,10.81,8.33,21.11,15.84,30.23,26.69,14.69,13.93,31.95,19.83,49.6,27.31,7.01,4.5,15.1,7.92,22.63,11.66,6.93,3.87,13.01,9.61,20.77,12.04,16.53,7.95,34.8,0,52.18,1.93,25.73,3.2,35.19,11.36,61.47-.11,18.86-10.07,40.4-17.23,61.28-22.67,17.42-4.67,24.88-3.08,40.52,3.01,14.34.83,26.89.29,32.33,16.82,10.46,36.89,16.78,82.08,24.03,117.03,5.81,30.94,10.53,62.52,11.69,93.84,5.16,83.05-21.16,197.67-57.84,259.77-.46.91-1.01,1.78-.94,2.64,1.21,1.98,3.35,1.44,6.8,2.13,26.77,2.44,23.63,4.67,62.35,4.6,23.85-.04,74.39-13.45,177-82.71,29.68-20.04,59.02-45.06,89.9-63.56,6.19-4.15,18.8-10.25,21.2-13.76,2.26-3.64-1.21-6.59-7.31-11.63-102.69-64.07-93.66-198.49-55.51-281.23,7.46-10.34,21.18-6.82,32.23-6.49,7.3.58,14.46-.85,21.59-1.85,17.36-1.08,32.87-7.12,48.2-15.21,12.24-5.41,24.45-7.59,37.41-10.01,8.14-2.19,17.34-2.69,25.91-3.64,13.13-1.06,27.92,3.46,40.45-2.58,6.9-3.38,13.67-8.24,21.53-8.79,9.61-.97,20-1.94,28.75-6.84,8.65-4.93,17.62-13.2,26.54-18.32,18.82-8.61,40.6-16.65,48.2-37.56,3.72-6.93,5-14.12,8.22-21.77,4.35-10.19,9.33-20.31,11.53-31.22,2.23-8.73,3.86-16.99,7.82-24.92,6.94-10.58,15.84-21.68,25.07-29.75,10.42-5.52,25.38-5.09,36.14-10.95,16.13-11.36,21.87-31.4,26.68-49.68,1.72-9.63,2.36-18.74,6.46-27.49,9.9-29.19,2.97-44.99-15.82-68.18-12.39-20.58-33.91-32.82-48.33-51.61-16.34-18.21-8.04-41.97-10.01-63.84-.15-20.74-15.28-36.68-27.7-51.39-11.78-13.03-20.75-28.49-33.86-40.33-15.05-11.66-33.1-18.32-50.98-22.58-8.8-2.15-18.24-6.7-24.3-13.92-6.53-8.1-13.53-16.13-21.83-22.44-11.73-8.13-27.19-3.84-40.16-8.71-7.05-1.7-12.53-5.91-18.57-9.5-6.03-3.27-12.61-4.96-18.31-9.79-4.47-3.73-8.62-8.2-13.96-10.54-10.09-5.13-20.66.25-31.55-.14-19.24-2.61-39.43-4.1-58.24.66-10.35,1.01-14.75.62-23.97,5.64-4.36,1.17-8.45,2.73-12.88,4.4-10.85,3.89-24.87-.69-32.37-9.49-5.51-6.16-8.36-14.45-11.24-22.1-7.37-19.08-27.66-25.53-45.79-30.18-13.72-2.04-26.91-6.97-40.21-10.64-11.91-3.98-19.37-10.74-32.31-8.23-9.07.66-18.76,1.76-27.65,4-10.39,2.48-18.51,9.39-29.29,10.1-16.22.86-32.82,2.77-47.52,9.06-7.49,4.13-11.78,10.89-17.42,17.15-7.88,11.61-24.44,10.68-34.99,17.41-5.48,5.11-5.23,13.41-7.37,20.93-2.67,16.17-13.5,17.38-26.66,13.42-14.4-3.09-29.16-10.1-43.14-14.98-8.1-1.98-16.04.8-23.89,3.36-13.28,5.08-27.96,6.9-41.34,11.89-6.87,2.49-14.27,4.12-20.21,7.38-4.46,1.85-9.56,7.42-14.21,6.56-5.01.14-7.31-1.77-13.63-.48-10.18,3.7-20.9,10.2-31.09,14.47-23.89,10.77-42.07,29.38-59.11,49.13-9.34,10.61-22.31,17.38-23.96,32.24-.86,16.13,1.04,33.8-8.15,48.1-9.18,13.57-25.48,20.18-35.99,32.69-13.09,13.48-21.53,32.35-37.56,42.75-7.6,5.85-16.19,10.14-21.71,17.9-14.31,23.74-.73,53.03,4.98,77.69,3.97,13.19-.22,26.06.66,38.41-.1,7.01,5.45,11.85,6.61,18.71,2.96,14.12,14.46,24.86,24.11,34.89l.12.12Z"/></g></svg>