<?xml version="1.0" encoding="UTF-8"?>
<svg id="Layer_1" xmlns="http://www.w3.org/2000/svg" version="1.1" viewBox="0 0 287.54 295.2">
  <!-- Generator: Adobe Illustrator 30.5.1, SVG Export Plug-In . SVG Version: 2.1.4 Build 3)  -->
  <defs>
    <style>
      .st0 {
        fill: #010101;
      }
    </style>
  </defs>
  <path class="st0" d="M13.34,131.12c-.16,1.43-.25,2.87-.25,4.33,0,25.68,24.91,46.5,55.65,46.5,12.97,0,24.9-3.72,34.36-9.94,3.64,1.61,7.45,2.98,11.42,4.04,2.3,11.4,5.85,29.29,7.39,38.52,4.59,27.34-.43,49.99-5.52,64.29l-4.9,16.2c9.79.95,26-3.23,34.17-8.25,6.59-4.05,18.37-13.83,24.27-18.83,14.15-11.96,23.27-13.83,23.27-13.83l-6.34-5.51c-18.33-17.96-12.56-45.48-6.29-62.55,9.19-.42,17.55-3.99,24.05-9.65,5.18,1.57,10.74,2.44,16.54,2.44,27.6,0,49.99-19.41,50.22-43.42,9.79-6.35,16.16-16.63,16.16-28.25,0-10.93-5.64-20.68-14.46-27.09,1.67-3.67,2.6-7.65,2.6-11.81,0-17.88-16.87-32.41-37.83-32.76-9.71-16.28-28.15-27.28-49.3-27.28-6.64,0-13,1.09-18.92,3.08-8.38-7.05-19.47-11.35-31.64-11.35-17.96,0-33.58,9.36-41.6,23.14-6.51-2.66-13.73-4.15-21.35-4.15-28.59,0-51.77,20.85-51.77,46.56,0,1.19.07,2.36.16,3.53C9.51,75.6,0,88.49,0,103.35c0,10.89,5.11,20.73,13.34,27.77ZM139.28,220.66c-4.86-4.31-7.29-31.96-8.61-41.97,1.82.12,3.64.2,5.5.2,5.7,0,11.23-.58,16.56-1.66-3.14,19.11-13.44,43.43-13.44,43.43h0Z"/>
</svg>