<?xml version="1.0" encoding="UTF-8"?><svg id="favicon" xmlns="http://www.w3.org/2000/svg" viewBox="0 0 1624.28 1624.28"><defs><style>.cls-1{fill:#4ab96f;}</style></defs><path class="cls-1" d="M1607.87,598.53c-5.53,11.81-6.4,24.1-8.72,37.1-6.49,24.68-14.24,51.72-36.02,67.06-14.52,7.91-34.71,7.32-48.78,14.77-12.46,10.89-24.47,25.88-33.83,40.15-5.35,10.71-7.54,21.85-10.55,33.64-2.98,14.73-9.7,28.38-15.57,42.14-4.35,10.32-6.07,20.02-11.09,29.38-10.25,28.22-39.65,39.07-65.06,50.69-12.03,6.91-24.14,18.06-35.82,24.72-11.81,6.61-25.83,7.92-38.8,9.23-10.6.75-19.75,7.3-29.06,11.87-16.92,8.16-36.87,2.06-54.6,3.49-11.56,1.29-23.99,1.97-34.97,4.92-17.48,3.27-33.97,6.21-50.49,13.51-20.69,10.92-41.63,19.08-65.06,20.53-9.62,1.35-19.3,3.28-29.14,2.5-14.92-.44-33.43-5.19-43.5,8.76-51.5,111.68-63.68,293.11,74.92,379.59,8.24,6.81,12.92,10.8,9.87,15.7-3.24,4.74-20.27,12.98-28.61,18.57-41.67,24.96-81.27,58.74-121.33,85.78-138.49,93.49-206.71,111.57-238.9,111.63-52.27.09-48.03-2.92-84.16-6.21-4.66-.93-7.55-.21-9.18-2.88-.09-1.16.66-2.34,1.27-3.56,49.5-83.82,85.03-238.52,78.07-350.61-1.57-42.27-7.94-84.89-15.78-126.66-9.79-47.17-18.32-108.18-32.44-157.96-7.33-22.31-24.28-21.59-43.63-22.71-21.11-8.21-31.18-10.37-54.69-4.06-28.18,7.35-57.25,17.01-82.71,30.6-35.46,15.48-48.24,4.47-82.96.15-23.46-2.59-48.12,8.12-70.43-2.6-10.47-3.28-18.67-11.03-28.03-16.26-10.15-5.05-21.08-9.66-30.54-15.74-23.82-10.1-47.12-18.07-66.95-36.87-12.31-14.65-26.21-24.77-40.8-36.02-14.75-12.3-18.3-33.7-27.31-50.46-3.46-6.24-7.46-12.7-10.47-18.98-7.05-13.49-2.78-26.59-2.59-40.99-.43-8.95-3.68-17.75-5.13-26.63-2.35-15.52-4.39-31.63-16.18-42.8l-.16-.16c-13.03-13.53-28.54-28.03-32.54-47.09-1.56-9.26-9.06-15.79-8.92-25.26-1.19-16.67,4.46-34.05-.89-51.85-7.7-33.29-26.04-72.82-6.72-104.86,7.45-10.47,19.04-16.26,29.3-24.16,21.64-14.05,33.04-39.51,50.7-57.71,14.18-16.89,36.19-25.8,48.57-44.12,12.4-19.3,9.84-43.15,11-64.93,2.22-20.05,19.74-29.2,32.34-43.51,23-26.66,47.55-51.77,79.79-66.31,13.76-5.76,28.22-14.55,41.96-19.53,8.53-1.74,11.64.83,18.4.65,6.27,1.15,13.16-6.37,19.18-8.86,8.02-4.39,18-6.59,27.28-9.96,18.06-6.75,37.87-9.2,55.8-16.05,10.59-3.46,21.32-7.22,32.25-4.54,18.87,6.59,38.79,16.05,58.23,20.22,17.77,5.34,32.38,3.71,35.98-18.12,2.89-10.15,2.55-21.35,9.95-28.24,14.24-9.09,36.59-7.83,47.23-23.5,7.61-8.45,13.4-17.57,23.51-23.15,19.83-8.49,42.24-11.07,64.13-12.23,14.55-.96,25.5-10.29,39.53-13.64,12-3.03,25.07-4.51,37.31-5.4,17.46-3.39,27.53,5.74,43.61,11.11,17.95,4.96,35.76,11.6,54.27,14.36,24.47,6.28,51.85,14.97,61.81,40.73,3.89,10.32,7.74,21.51,15.17,29.83,10.12,11.88,29.04,18.06,43.69,12.81,5.97-2.26,11.5-4.36,17.38-5.94,12.44-6.77,18.38-6.26,32.35-7.62,25.38-6.43,52.64-4.41,78.6-.89,14.69.53,28.97-6.74,42.58.19,7.21,3.16,12.81,9.19,18.84,14.23,7.7,6.52,16.57,8.81,24.72,13.21,8.15,4.85,15.55,10.52,25.07,12.82,17.5,6.57,38.36.78,54.2,11.76,11.21,8.51,20.66,19.36,29.47,30.29,8.18,9.74,20.92,15.88,32.8,18.78,24.14,5.76,48.49,14.74,68.81,30.48,17.7,15.97,29.81,36.84,45.7,54.43,16.77,19.85,37.19,41.37,37.39,69.36,2.67,29.52-8.54,61.59,13.52,86.17,19.46,25.37,48.51,41.88,65.23,69.66,25.36,31.3,34.72,52.62,21.35,92.02Z"/></svg>